<svg width="334" height="486" xmlns="http://www.w3.org/2000/svg" xmlns:xlink="http://www.w3.org/1999/xlink" xml:space="preserve" overflow="hidden"><defs><clipPath id="clip0"><rect x="57" y="15" width="334" height="486"/></clipPath></defs><g clip-path="url(#clip0)" transform="translate(-57 -15)"><path d="M1281.94 568.507 993.887 568.507 852.065 426.092 852.065 710.376 1137.33 426.092 1282.2 426.092" stroke="#6198D2" stroke-width="3.07093" stroke-linecap="round" stroke-linejoin="round" fill="none" transform="matrix(1.00249 0 0 1 57 15)"/><path d="M284.37 719.237C284.37 636.049 216.934 568.607 133.74 568.607L-2.99596 568.607" stroke="#6198D2" stroke-width="3.07093" stroke-linecap="round" stroke-linejoin="round" fill="none" transform="matrix(1.00249 0 0 1 57 15)"/><path d="M-3.66173 142.142 142.142 142.142-2.99596 431.751" stroke="#6198D2" stroke-width="3.07093" stroke-linecap="round" stroke-linejoin="round" fill="none" transform="matrix(1.00249 0 0 1 57 15)"/><path d="M283.698-4.3275 283.698 143.187C283.698 221.109 220.529 284.283 142.601 284.283L-3.66173 284.283" stroke="#6198D2" stroke-width="3.07093" stroke-linecap="round" stroke-linejoin="round" fill="none" transform="matrix(1.00249 0 0 1 57 15)"/><path d="M709.737-1.99731 709.737 283.871C631.768 283.871 568.567 220.669 568.567 142.701L1279.28 142.701" stroke="#6198D2" stroke-width="3.07093" stroke-linecap="round" stroke-linejoin="round" fill="none" transform="matrix(1.00249 0 0 1 57 15)"/><path d="M993.993 0C993.993 157.008 1121.27 284.283 1278.28 284.283" stroke="#6198D2" stroke-width="3.07093" stroke-linecap="round" stroke-linejoin="round" fill="none" transform="matrix(1.00249 0 0 1 57 15)"/></g></svg>