<svg width="318" height="196" xmlns="http://www.w3.org/2000/svg" xmlns:xlink="http://www.w3.org/1999/xlink" xml:space="preserve" overflow="hidden"><defs><clipPath id="clip0"><rect x="962" y="524" width="318" height="196"/></clipPath></defs><g clip-path="url(#clip0)" transform="translate(-962 -524)"><path d="M1281.84 568.464 993.811 568.464 852 426.06 852 710.322 1137.24 426.06 1282.1 426.06" stroke="#6198D2" stroke-width="3.22569" stroke-linecap="round" stroke-linejoin="round" fill="none" transform="matrix(-1.00311 0 0 1 1280 1.01698)"/><path d="M284.348 719.182C284.348 636.001 216.918 568.563 133.73 568.563L-2.99573 568.563" stroke="#6198D2" stroke-width="3.22569" stroke-linecap="round" stroke-linejoin="round" fill="none" transform="matrix(-1.00311 0 0 1 1280 1.01698)"/><path d="M-3.66145 142.131 142.131 142.131-2.99573 431.718" stroke="#6198D2" stroke-width="3.22569" stroke-linecap="round" stroke-linejoin="round" fill="none" transform="matrix(-1.00311 0 0 1 1280 1.01698)"/><path d="M283.676-4.32717 283.676 143.176C283.676 221.092 220.513 284.262 142.59 284.262L-3.66145 284.262" stroke="#6198D2" stroke-width="3.22569" stroke-linecap="round" stroke-linejoin="round" fill="none" transform="matrix(-1.00311 0 0 1 1280 1.01698)"/><path d="M709.682-1.99716 709.682 283.849C631.72 283.849 568.523 220.652 568.523 142.69L1279.18 142.69" stroke="#6198D2" stroke-width="3.22569" stroke-linecap="round" stroke-linejoin="round" fill="none" transform="matrix(-1.00311 0 0 1 1280 1.01698)"/><path d="M993.918 0C993.918 156.996 1121.18 284.262 1278.18 284.262" stroke="#6198D2" stroke-width="3.22569" stroke-linecap="round" stroke-linejoin="round" fill="none" transform="matrix(-1.00311 0 0 1 1280 1.01698)"/></g></svg>